HIERARCHY
ROOT Hips
{
 OFFSET 0.000000 0.000000 0.000000
 CHANNELS 6 Xposition Yposition Zposition Yrotation Xrotation Zrotation
 JOINT Chest
 {
  OFFSET 0.000000 10.383400 0.001500
  CHANNELS 3 Yrotation Xrotation Zrotation
  JOINT Chest2
  {
   OFFSET 0.000000 10.418200 -0.003100
   CHANNELS 3 Yrotation Xrotation Zrotation
   JOINT Chest3
   {
    OFFSET 0.000000 10.375100 0.000000
    CHANNELS 3 Yrotation Xrotation Zrotation
    JOINT Chest4
    {
     OFFSET 0.000000 10.364600 0.000000
     CHANNELS 3 Yrotation Xrotation Zrotation
     JOINT Neck
     {
      OFFSET 0.000000 15.642200 0.000000
      CHANNELS 3 Yrotation Xrotation Zrotation
      JOINT Head
      {
       OFFSET 0.000000 9.697300 -0.006500
       CHANNELS 3 Yrotation Xrotation Zrotation
       End Site
       {
        OFFSET 0.000000 18.492200 -0.003400
       }
      }
     }
     JOINT RightCollar
     {
      OFFSET -3.166800 10.349300 0.000000
      CHANNELS 3 Yrotation Xrotation Zrotation
      JOINT RightShoulder
      {
       OFFSET -14.729700 0.000000 0.000000
       CHANNELS 3 Yrotation Xrotation Zrotation
       JOINT RightElbow
       {
        OFFSET 0.000000 -32.224300 0.000000
        CHANNELS 3 Yrotation Xrotation Zrotation
        JOINT RightWrist
        {
         OFFSET 0.000000 -26.084100 0.000000
         CHANNELS 3 Yrotation Xrotation Zrotation
         End Site
         {
          OFFSET 0.000000 -19.319400 0.000000
         }
        }
       }
      }
     }
     JOINT LeftCollar
     {
      OFFSET 3.166800 10.349300 0.000000
      CHANNELS 3 Yrotation Xrotation Zrotation
      JOINT LeftShoulder
      {
       OFFSET 14.729700 0.000000 0.000000
       CHANNELS 3 Yrotation Xrotation Zrotation
       JOINT LeftElbow
       {
        OFFSET 0.000000 -32.224300 0.000000
        CHANNELS 3 Yrotation Xrotation Zrotation
        JOINT LeftWrist
        {
         OFFSET 0.000000 -26.084100 0.000000
         CHANNELS 3 Yrotation Xrotation Zrotation
         End Site
         {
          OFFSET 0.000000 -19.319400 0.000000
         }
        }
       }
      }
     }
    }
   }
  }
 }
 JOINT RightHip
 {
  OFFSET -8.428900 -0.007500 -0.000800
  CHANNELS 3 Yrotation Xrotation Zrotation
  JOINT RightKnee
  {
   OFFSET 0.000000 -43.834600 0.000700
   CHANNELS 3 Yrotation Xrotation Zrotation
   JOINT RightAnkle
   {
    OFFSET 0.000000 -42.757000 0.001200
    CHANNELS 3 Yrotation Xrotation Zrotation
    JOINT RightToe
    {
     OFFSET 0.000000 -6.946900 15.649300
     CHANNELS 3 Yrotation Xrotation Zrotation
     End Site
     {
      OFFSET 0.000000 -1.580800 6.825800
     }
    }
   }
  }
 }
 JOINT LeftHip
 {
  OFFSET 8.428900 -0.007500 -0.000800
  CHANNELS 3 Yrotation Xrotation Zrotation
  JOINT LeftKnee
  {
   OFFSET 0.000000 -43.834600 0.000700
   CHANNELS 3 Yrotation Xrotation Zrotation
   JOINT LeftAnkle
   {
    OFFSET 0.000000 -42.757000 0.001200
    CHANNELS 3 Yrotation Xrotation Zrotation
    JOINT LeftToe
    {
     OFFSET 0.000000 -6.946900 15.649300
     CHANNELS 3 Yrotation Xrotation Zrotation
     End Site
     {
      OFFSET 0.000000 -1.580800 6.825800
     }
    }
   }
  }
 }
}
MOTION
Frames: 8
Frame Time: 0.008333
0.000000 93.354300 0.000000 0.000000 -5.767883 0.000000 0.000000 11.653835 0.000000 0.000000 -5.885947 0.000000 0.000000 -0.000000 0.000000 0.000000 -0.000000 0.000000 0.000000 12.528835 0.000000 0.000000 0.711642 0.000000 0.000000 -0.000000 0.000000 0.000000 0.000000 -90.000000 0.000000 -2.309062 0.000000 0.000000 2.309062 0.000000 0.000000 -0.000000 0.000000 0.000000 -0.000000 90.000000 0.000000 -2.309062 0.000000 0.000000 2.309062 0.000000 0.000000 8.520418 0.000000 0.000000 1.905762 0.000000 -0.000000 -4.658285 0.000000 0.000000 -0.000000 0.000000 0.000000 8.520418 0.000000 0.000000 1.905762 0.000000 -0.000000 -4.658285 0.000000 0.000000 -0.000000 0.000000
126.416924 153.894733 20.550752 -13.206430 -25.783084 -0.856630 -1.146945 16.945624 1.080386 -0.111500 1.737633 0.198029 -0.182703 2.898706 0.328686 -0.792513 14.796424 1.596081 1.892859 13.788728 -1.065894 3.945069 -10.113571 -2.753843 -1.977938 -4.578759 -3.967105 11.719117 -16.961180 -6.916871 20.979417 -37.561163 0.596770 6.133435 0.124802 -21.933944 -1.374660 -6.643671 -2.238977 -9.646385 -13.300772 6.108295 -24.125510 -42.928654 4.686913 -17.064720 3.792638 19.287899 -6.080293 -42.915320 0.421596 -28.049264 72.125179 -28.990566 -1.344074 -1.353382 4.237627 0.251513 -0.874931 0.119737 -3.217789 -36.288047 -10.014714 -0.189112 70.659380 1.836111 -10.142654 -4.310990 -0.662756 0.035656 0.078584 0.023433
126.416299 145.335042 20.483527 -13.307885 -25.835750 -1.126480 -0.973793 16.887958 1.397334 -0.111805 1.750026 0.200220 -0.183102 2.918463 0.332149 -0.750104 14.883606 1.605330 1.888086 13.848436 -1.040424 3.990826 -9.920361 -2.734125 -1.800446 -4.374744 -3.922227 11.772401 -17.180937 -7.070775 19.378703 -37.370244 1.086971 5.290147 -0.709349 -21.442817 -1.582221 -6.579463 -2.354542 -9.815978 -13.359886 6.138731 -22.081637 -42.842863 4.094361 -16.384984 3.036483 18.937160 -6.161192 -42.774909 0.654098 -27.874531 72.097654 -28.690406 -1.151512 -1.685156 4.297669 0.074935 -0.477110 0.033310 -3.508518 -36.141579 -9.434474 -0.260323 70.538498 1.679908 -10.143653 -4.206276 -0.712855 0.024065 0.103840 0.010692
126.423826 138.290372 20.432987 -13.343690 -25.956867 -1.326453 -0.910069 16.889864 1.607408 -0.113621 1.758531 0.201852 -0.186054 2.932050 0.334703 -0.779108 14.863639 1.627610 1.937329 13.996841 -1.049336 4.055169 -9.738202 -2.727570 -1.585984 -4.082580 -3.932329 11.827496 -17.383662 -7.197921 17.874110 -37.223624 1.447477 4.314015 -1.809217 -21.000945 -1.675839 -6.408704 -2.525158 -9.875508 -13.357551 6.115487 -20.110511 -42.900202 3.648568 -15.756120 2.246190 18.987170 -6.175458 -42.590784 0.744563 -27.783378 72.078213 -28.472210 -1.066099 -1.890726 4.325626 0.014524 -0.245026 0.006474 -3.816416 -35.939650 -8.958292 -0.364196 70.416814 1.443642 -10.133185 -4.096771 -0.744552 0.013508 0.066780 0.006000
126.435138 133.198380 20.381453 -13.356787 -26.020389 -1.472457 -0.902025 16.831987 1.748907 -0.116520 1.763855 0.202790 -0.190797 2.940589 0.336228 -0.801486 14.882063 1.630104 1.981237 14.075867 -1.045103 4.132883 -9.589737 -2.732998 -1.420989 -3.850290 -3.936802 11.845419 -17.564017 -7.271140 16.610377 -37.185103 1.588206 3.319838 -3.249660 -20.802222 -1.732767 -6.277075 -2.674089 -9.778247 -13.291880 6.011080 -18.327286 -43.219699 3.426534 -15.377697 1.542864 19.494399 -6.113646 -42.473193 0.725999 -27.648381 72.052315 -28.177448 -1.034853 -2.012391 4.327016 -0.000588 -0.089556 -0.000258 -4.130695 -35.821759 -8.536068 -0.441747 70.304078 1.192166 -10.140202 -3.995975 -0.766475 0.006459 0.037921 0.002869
126.453361 129.982694 20.344710 -13.349930 -26.104111 -1.528101 -0.948549 16.796106 1.781665 -0.091488 1.825746 0.206347 -0.224142 2.885785 0.334080 -0.827686 14.891498 1.626355 2.043204 14.166305 -1.049641 4.200338 -9.526610 -2.739310 -1.294010 -3.641285 -3.943606 11.785977 -17.696727 -7.258781 15.685445 -37.339594 1.415893 2.502468 -4.920061 -20.972143 -1.707294 -6.152533 -2.754442 -9.523572 -13.157094 5.753224 -16.895354 -43.873339 3.544759 -15.239804 0.973260 20.382588 -5.933184 -42.351723 0.538858 -27.499998 72.061529 -27.847949 -1.036529 -2.046675 4.330879 -0.000048 -0.040967 -0.000021 -4.359418 -35.701556 -8.285547 -0.400122 70.214849 1.089273 -10.180493 -3.937614 -0.796797 0.007405 0.018914 0.003288
126.460197 128.222387 20.332935 -13.398342 -26.299748 -1.555902 -0.940620 16.877499 1.803102 -0.108641 1.795778 0.204911 -0.213763 2.916464 0.333227 -0.849549 14.892159 1.618225 2.080057 14.177783 -1.045106 4.293070 -9.462470 -2.762837 -1.217367 -3.463451 -3.944964 11.622388 -17.755674 -7.131073 15.096395 -37.774864 0.897070 1.956586 -6.586602 -21.513437 -1.707819 -5.995714 -2.859900 -9.055462 -12.986383 5.465798 -15.882401 -44.850695 4.035910 -15.170104 0.503016 21.455660 -5.665653 -42.122971 0.316059 -27.331296 72.074037 -27.478532 -1.046922 -2.014756 4.329236 0.002797 -0.042036 0.001241 -4.436939 -35.467342 -8.158298 -0.280304 70.165551 1.182999 -10.217375 -3.897797 -0.857085 0.015772 0.009084 0.007003
126.467583 127.381300 20.314636 -13.443394 -26.409252 -1.570459 -0.929496 16.880793 1.805027 -0.123229 1.764108 0.201144 -0.202094 2.941113 0.333255 -0.860857 14.882528 1.608365 2.113022 14.155799 -1.045262 4.377587 -9.435841 -2.780325 -1.208565 -3.312516 -3.943448 11.341277 -17.727495 -6.875720 14.759318 -38.537791 0.085519 1.643691 -8.068576 -22.322059 -1.677323 -5.829002 -2.904135 -8.445301 -12.775848 5.072289 -15.167454 -46.102106 4.764458 -15.032481 0.091456 22.530628 -5.432411 -41.985848 0.118466 -27.072084 72.079332 -27.046963 -1.081239 -1.946280 4.312211 0.007198 -0.042297 0.003193 -4.430862 -35.337955 -8.107815 -0.300005 70.139313 1.201436 -10.197260 -3.844004 -0.875263 0.010614 0.013058 0.004713
